<svg xmlns="http://www.w3.org/2000/svg" viewBox="0 0 445.28 288.72"><defs><style>.cls-1{fill:#f71e39;}</style></defs><g id="Layer_2" data-name="Layer 2"><g id="Capa_1" data-name="Capa 1"><path class="cls-1" d="M222.66,0a37.11,37.11,0,1,0,37.08,37.1A37.15,37.15,0,0,0,222.66,0Z"/><path class="cls-1" d="M51.45,48.5A25.73,25.73,0,1,0,25.72,74.21,25.76,25.76,0,0,0,51.45,48.5Z"/><path class="cls-1" d="M419.17,95.85H419c-.28,0-.56,0-.83,0A14.73,14.73,0,0,0,406.73,102L304.81,243.47,250.42,105.2v0c-.08-.21-.17-.43-.27-.64l0-.08-.27-.55-.08-.15-.24-.44-.14-.25c-.07-.1-.13-.21-.19-.31s-.15-.23-.22-.34l-.13-.19c-.1-.15-.2-.29-.31-.43l-.07-.09c-.12-.17-.25-.33-.38-.49l0,0a14.88,14.88,0,0,0-1.45-1.52h0l-.51-.44-.11-.09c-.14-.11-.28-.23-.43-.33s-.16-.12-.24-.18l-.31-.22-.41-.27-.16-.1-.57-.34h0a14.49,14.49,0,0,0-3.23-1.31l-.06,0-.55-.14-.19,0-.42-.09-.34-.06-.3,0-.48-.06-.18,0-.61,0h-.08l-.7,0H207.44a13.25,13.25,0,0,0-1.67.08h-.11l-.58.07-.35.06-.33.06-.5.11-.17,0-.6.16-.06,0c-.22.06-.44.13-.65.21h0l-.66.25h0l-.63.27,0,0-.58.28-.08,0-.5.27-.15.09-.41.25-.23.15-.31.21-.31.22-.21.16-.38.3-.13.11-.44.37-.06.06-.47.45,0,0c-.16.16-.32.33-.47.5h0c-.15.17-.31.35-.45.53l0,0-.41.52,0,.07-.35.49-.11.16-.27.42-.18.32c-.06.09-.11.18-.16.27s-.2.37-.29.56l0,.06a15.18,15.18,0,0,0-.66,1.56L142.51,243,40.84,102a14.75,14.75,0,0,0-11.51-6.11l-.8,0a14.76,14.76,0,0,0-14.76,14.77V225.28a14.77,14.77,0,0,0,29.53,0v-69.4l91.34,126.7a14.72,14.72,0,0,0,12,6.13h.16a14.77,14.77,0,0,0,13.85-9.65l56.9-153.7h9.08l60.57,154a14.76,14.76,0,0,0,13.74,9.37h.12a14.77,14.77,0,0,0,12-6.13l91.14-126.53v69.23a14.77,14.77,0,0,0,29.53,0V110.61A14.76,14.76,0,0,0,419.17,95.85Z"/><path class="cls-1" d="M445.28,48.5a25.73,25.73,0,1,0-25.73,25.71A25.77,25.77,0,0,0,445.28,48.5Z"/></g></g></svg>